<svg xmlns="http://www.w3.org/2000/svg" viewBox="0 0 24 24">
  <rect width="24" height="24" fill="#fff"/>
  <!-- Head -->
  <circle cx="12" cy="12" r="8">
    <title>Andy Warhol Face</title>
  </circle>

  <!-- Hair -->
  <path d="M10 2h4v0h4v4H10z"/>
  <path d="M10 6h4v0h4v4H10z"/>

  <!-- Storyteller Hat -->
  <path d="M17 4h-2V2h-2v2H7v2h2v2h2v2h2V4h2v2h2v2h2V4h2v2H17z"/>

  <!-- Nipples -->
  <circle cx="10" cy="5" r="0.5"/>
  <circle cx="10" cy="7" r="0.5"/>
  <circle cx="10" cy="9" r="0.5"/>
  <circle cx="10" cy="11" r="0.5"/>

  <!-- Eyebrows -->
  <path d="M10 2h-4V0h4z"/>

  <!-- Eyes -->
  <circle cx="9" cy="1" r="1"/>
  <circle cx="11" cy="1" r="1"/>

  <!-- Lips -->
  <path d="M10 12h2v4z"/>
  <path d="M14 12h-2v4z"/>
  <circle cx="9" cy="15" r="0.5"/>
  <circle cx="11" cy="15" r="0.5"/>

  <!-- Arm -->
  <path d="M10 6h4v0h4v8H10z"/>
  <path d="M15 9h-2v2h2v2h2v-2H15z"/>

  <!-- Hamburger -->
  <rect x="16" y="12" width="2" height="6"/>
  <rect x="18" y="12" width="2" height="6"/>
  <rect x="20" y="12" width="2" height="6"/>
  <!-- Add additional rectangles and paths for bread, patty, lettuce, etc. -->
  <!-- All micronutrients for a hamburger are not depicted here -->

  <!-- Finger -->
  <path d="M10 6h-1v2h1v-2z"/>
  <path d="M10 3h1v2h-1v-2z"/>
</svg>