<svg xmlns="http://www.w3.org/2000/svg" viewBox="0 0 200 200" width="200" height="200">
  <defs>
    <path id="warhol-hamburger" d="M85.7,139.2l-2.3,10.3c-1.2,1.2-2.2,2.3-2.9,3.3c-0.7,0.9-1.1,1.5-1.1,1.9c0,0.6-0.2,1.1-0.7,1.5
      s-1.1,0.5-1.9,0.5c-1.4,0-2.6-0.4-3.5-1.1s-1.7-1.9-1.7-3.3c-0.4-0.1-0.9-0.3-1.5-0.6c-0.6-0.3-1.7-0.9-3.2-1.8L62,156
      c-0.5,0.7-1,1.5-1.5,2.6l6.9,1.5c0.2-0.5,0.4-0.9,0.5-1.3c0.1-0.4,0.1-0.8,0.1-1.1s-0.1-0.6-0.2-0.7c-0.1-0.1-0.3-0.2-0.6-0.3
      s-0.4-0.1-0.7-0.1h-3.7c-1.1,0-2-0.2-2.9-0.6s-1.1-1-1.1-1.9c0-0.5,0.2-0.8,0.5-1.2c-0.5-0.2-0.8-0.4-1.1-0.6V147
      c0,0.2,0.1,0.4,0.3,0.6s0.3,0.2,0.5,0.2c0.3,0,0.6-0.1,0.9-0.3c0.3-0.2,0.4-0.6,0.4-1.2c0-0.6-0.2-1-0.7-1.3s-1.1-0.4-1.8-0.4
      c-0.7,0-1.3,0.1-1.9,0.3c-0.5,0.2-1,0.5-1.3,0.8l-2.2-5.8L65,138h-3.2c-0.1,0-0.2,0-0.4,0.1l-12.2,8.4
      c-1.8-0.1-3.4-0.7-4.9-1.8s-2.4-2.7-2.9-5l-2.4-7l2.7-0.3l1.2-6l1.8,1.1c0.3,0.2,0.7,0.2,1,0.1c0.3-0.1,0.6-0.4,0.8-0.8
      c0.2-0.4,0.2-0.7,0-0.9c0.2-0.2,0.6-0.4,1.1-0.6c0.5-0.2,0.9-0.3,1.3-0.3c0.5,0,0.9,0.1,1.2,0.3c0.3,0.2,0.4,0.4,0.5,0.7
      c0.1,0.3,0.1,0.6,0,1L67,126.1c0-0.1,0-0.2-0.1-0.3l12.5,1.6l-5.5,11.6c-1.3,1.8-1.8,3.7-1.8,6c0,1.3,0.2,2.5,0.7,3.5
      c0.4,1,1,1.8,1.8,2.4c0.8,0.6,1.7,0.9,2.8,0.9c1.7,0,3-0.6,4-1.8c0.4-0.6,0.6-1,0.6-1.4c0-0.4-0.1-0.6-0.2-0.9L68,140
      c0-0.2-0.1-0.3-0.3-0.5c-0.2-0.2-0.4-0.2-0.7-0.2h-1.6l-19.7-7.3c0.1,0.4,0.1,0.9,0.1,1.4c0,1.6-0.3,3-1,4.2s-1.9,2-3.4,2.5v6.3
      c1.5,0.4,2.8,0.8,3.9,1.3c1,0.5,1.6,1.1,1.6,1.9c0,0.5-0.2,0.9-0.5,1.3s-0.8,0.5-1.3,0.5c-0.5,0-1-0.2-1.5-0.5
      c-0.5-0.3-0.9-0.8-1.1-1.4c-0.1-0.2-0.2-0.6-0.3-0.9l0.1-0.1l0.1-0.1c-0.1,0-0.2,0-0.2-0.1l-1.9,1.4l1.1,3.8c0.7,0.1,1.2,0.3,1.6,0.6
      s0.5,0.7,0.5,1.2s-0.2,0.9-0.5,1.3c-0.3,0.3-0.7,0.5-1.3,0.5c-0.3,0-0.7-0.1-1.1-0.2c-0.4-0.1-0.8-0.3-1-0.5l-10.5,1l-10.6-0.4
      c-0.1-0.5-0.1-0.8-0.1-1.2l0.3,0.1l6.3,3c0.2-0.1,0.5-0.2,0.7-0.3c0.2-0.1,0.6-0.3,0.9-0.5l-1.4-7.3c-1.9,0.5-3.4,1.2-4.6,2.2
      l11.6-12.7l15-12.6c0.5-0.5,0.8-0.8,1-1.2l-15.2,14.7h-12.9l15.3-13.5c-0.3-0.5-0.7-0.8-1.1-1.2L56,130c0-0.3,0.1-0.6,0.3-0.8
      l-14.9,11.7l-2-1.8c-0.1,0-0.3,0-0.4-0.1l0.2-0.2c-0.1,0-0.1-0.1-0.3-0.1l-15.5-17.9L28,128.1c0.2,0.3,0.4,0.7,0.5,1
      s0.1,0.7,0.1,1.1c0,0.4-0.1,0.7-0.3,1c-0.2,0.3-0.5,0.6-1,0.7l14.7,18.7l11.7-16c-0.4-0.2-0.7-0.5-0.9-0.8l-7.8,12.7l-8-13.4
      c-0.4,0.1-0.7,0.3-1,0.4l10.4,15l-15,20.6c0,0.5-0.1,1-0.3,1.4s-0.9,0.6-1.7,0.6c-0.5,0-1-0.1-1.4-0.3c-0.4-0.2-0.6-0.5-1-0.7
      c-0.3-0.3-0.5-0.5-0.6-0.7c-0.2-0.2-0.3-0.5-0.3-0.9c0-0.4,0.1-0.9,0.5-1.4l-13.5-21.3l-2.8-1.2l-0.2,0.2c0,0.2,0,0.4,0,0.6
      c0,0.5-0.1,0.9-0.4,1.2c-0.3,0.3-0.6,0.5-1.1,0.5c-0.4,0-0.7-0.1-1.1-0.3l4.9,7.1c0,0.1,0,0.2,0,0.4c0,0.3-0.1,0.6-0.3,0.9
      s-0.5,0.4-0.9,0.4c-0.5,0-1-0.2-1.4-0.5c-0.4-0.3-0.7-0.7-0.7-1.2c0-0.3,0.1-0.5,0.3-0.9l-7.6-11.4l-9-13.3l-2.4-0.8l1.9,5.7
      c0.2,0.1,0.5,0.1,0.7,0.1c0.3,0,0.6-0.1,0.9-0.4c0.1-0.1,0.2-0.3,0.4-0.6c0.1-0.3,0.2-0.5,0.2-0.7c0.1-0.2,0.1-0.4,0.1-0.7
      c0-0.5-0.2-0.9-0.7-1.2c-0.5-0.3-1.1-0.4-2-0.4c-0.8,0-1.4,0.1-1.9,0.3s-0.8,0.5-1.1,0.8v-7.2c0-1.1,0.2-2.1,0.6-2.9
      c0.4-0.8,1-1.6,1.6-2.2s1.5-1.2,2.7-1.4l-0.5-7.6c-0.1,0-0.1-0.1-0.2-0.1l-2.1-9.3c-1.2,0.5-2.4,1.1-3.6,1.7c-1.1,0.6-2,1.3-2.7,2.2
      l0.3-2.9c-1.2,0.4-2.3,0.9-3.3,1.5c-1,0.6-1.7,1.2-2.1,2c-0.4,0.8-0.5,1.8-0.5,3c0,1.7,0.4,3,1.1,4.1s1.7,1.5,2.9,1.5
      c1,0,1.7-0.2,2.2-0.7s0.7-1.1,0.7-1.9c0,0,0-0.5,0-0.7c0.1,0.3,0.3,0.6,0.6,0.8s0.6,0.3,1,0.3c1.2,0,2.1-0.5,2.7-1.5s0.8-2.1,0.8-4
      c0-1.1-0.1-2-0.4-2.8l5-12.4c0.7,2.3,1.5,4,2.6,5.3l9.8,8.1c1.2-0.8,2.1-1.7,2.9-2.6S43.7,67,44.7,65.2c1-1.8,1.3-4.1,1.1-6.7
      c-0.2-2.7,0-4.6,0.3-5.9c0.3-1.2,0.9-2.1,1.8-2.8c0.9-0.7,1.9-1.1,3.2-1.1s2.2,0.4,2.7,1.3l10.8,18.3c0.1-0.1,0.2-0.2,0.3-0.3L75,53.9
      c0.1-0.1,0.3-0.2,0.5-0.3c0.2-0.1,0.4-0.2,0.5-0.2c0.3-0.1,0.7-0.3,1.2-0.5l0.8-3.1c0.4-0.1,0.8-0.2,1.1-0.2c0.4-0.1,0.7-0.1,1-0.1
      c0.3,0,0.5,0,0.7,0c0.6,0,1.1,0.2,1.3,0.4c0.3,0.2,0.4,0.5,0.4,0.9c0,0.4-0.2,0.8-0.5,1.1l-1,13.3l-0.5,8.5
      c1.2,0.3,2,0.7,2.7,1.2c0.7,0.5,1.1,1,1.3,1.5l0.5,2.8c-0.2-0.2-0.5-0.5-0.8-0.8l-9.8-8.5l-5.5-12.6c-1.7-3.6-2.5-6.1-2.4-7.8
      c0-0.7,0-1.2,0.1-1.6v-0.7c-0.6,0.3-1.1,0.7-1.5,1.1s-0.7,0.9-0.9,1.5c-0.2,0.5-0.2,1.1-0.2,1.7c0,0.8,0.1,1.6,0.3,2.5
      c0.2,0.8,0.5,1.5,0.8,2.1l-2,1.1c-0.9,0.5-1.6,1.1-2.1,1.6c-0.5,0.5-0.7,1.1-0.7,1.7c0,0.6,0.2,1.2,0.5,1.7s0.7,0.9,1.2,1.1
      c0.5,0.2,1,0.3,1.6,0.3l1.4-11.4c0-0.1,0-0.2,0-0.3c0-0.3,0.1-0.5,0.3-0.8c0.2-0.3,0.4-0.5,0.7-0.6c0.3-0.1,0.7-0.3,1.2-0.5l5.2-9.2
      c0.2-0.2,0.4-0.4,0.6-0.7c0.2-0.3,0.5-0.5,0.8-0.8l2.7-0.1l-1.8-16.1c-0.1-0.9-0.2-1.7-0.3-2.3s-0.2-1.2-0.4-1.8
      c-0.2-0.6-0.5-1-0.8-1.4c-0.3-0.3-0.7-0.6-1.1-0.8c-0.3-0.2-0.8-0.3-1.3-0.3c-0.5,0-1,0-1.5,0s-0.9,0.1-1.2,0.2c-0.6,0.2-1,0.5-1.3,0.9
      l-4-0.7c-1.1-0.2-2.1-0.4-2.9-0.5c-0.8-0.1-1.5-0.2-2-0.3l-6.1-4.2c0.4,0,0.6,0,0.8,0s0.4,0,0.6,0c1.2,0,2.2,0.3,3,0.8
      c0.7,0.5,1.2,1.2,1.3,2.1c0,0.5-0.1,0.9-0.3,1.3l-13.1,1.3l5.3,4.2V57l0.1-0.3c0,0.4,0.4,0.5,1.3,0.5c0.7,0,1.4-0.1,2.1-0.3
      c0.6-0.2,1.3-0.5,1.9-0.9l2.3,2c-0.4,0.8-0.7,1.2-0.9,1.5c-0.2,0.3-0.6,0.8-1,1.3c-0.4,0.5-0.9,0.8-1.4,1.3c-0.5,0.4-1,0.8-1.6,1.1
      marker-start="url(#dot)"
      marker-end="url(#dot)"/>
  </defs>
  <style>
    .dot {
      stroke: none;
      fill: #000000;
      stroke-width: 2;
      stroke-dasharray: none;
    }
    .dot2 {
      stroke: none;
      fill: #FFFFFF;
      stroke-width: 2;
      stroke-dasharray: none;
    }
  </style>
  
  <!-- Create Andy Warhol -->
  <g transform="translate(20 30)" style="fill:#ff0; stroke:#000; stroke-width:2">
    <path d="M60,88.8c-11.6,18.9-18,44.5-18,76.2c0,31.8-4.1,57.5-12.3,77.5C-0.5,231.2-9.2,244-22,254.3L-25,249.3l5.9-5.1
      c-5.3-17.1-8.1-37.4-8.1-60.9c0-13.7,0.8-25.1,2.4-34.2c11.6-14.8,28.2-21.4,50.2-19.6l3.4-9.3l2.3-6.3L58,88.8L60,88.8z"/>
    <path d="m7.9,176.9l7.7-2.1l-1.1,2.1l-6.7,2.5l-8.3,12.9l14.9-26.3l20.3-11.5l8.3-12.9l31,9.4L18,140.7l10.9,13.3L7.9,176.9
      L7.9,176.9z"/>
    <path d="M82.1,121.9l11.2,8.4l-11.2-8.4L82.1,121.9z"/>
    <path d="M86.6,131.4l13.5,12l-15.7-11.8L86.6,131.4z"/>
    <g transform="translate(0 31.7)">
      <path class="dot2" d="M23.3,149.1c-1.4-1.2-2.3-4.1-2.3-5.8c0-1.6,1.3-3.4,2.3-4.5c1-1.1,2-2.2,2.6-3.4s1-2.6,1-4.5c0-1.3,0-2.6-0.1-3.9
        s-0.3-2.7-0.6-4.1c-0.3-1.4-1.2-4.2-3.2-7c2.2,0.7,4,1.5,5.5,2.2c1.5,0.7,2.4,1.8,3,3.3c0.6,1.5,0.6,3.6,0.3,7.5
        s-0.9,7.2-1.5,10.1s-0.8,5.1-0.7,5.9c0.1,0.8,0.2,1.5,0.2,2.1s0.2,1.3,0.2,2.1s-0.1,1.5-0.5,3.3s-1.1,4.7-2.2,7.2l-5.4-0.4V20.2l2-0.8
        c0,5.4,0.1,10.7,0,16.1c0,4.7,0,9.3-0.2,14c-0.2,4.6-0.6,9.3-1.4,14.1C23.3,142.4,23.3,145.9,23.3,149.1z M24,6.6
        c-0.8-1.3-1.7-2.8-2.7-4.4c-1-1.6-2-3.2-3.2-4.9c-1.2-1.7-2.5-3.3-3.9-4.7c-1.4-1.4-2.9-2.6-4.7-3.6s-3.6-1.7-5.8-2.3V0v0.1H0v0.1
        l0.1,0.1l0.1,0.1l20.9,20.2c0,0-0.1,0-0.2-0.1L24,7.1C24,7.1,24,7.1,24,6.6L24,6.6z"/>
    </g>
  </g>
  
  <!-- Create Hamburger -->
  <g transform="translate(100 15)" style="fill:#000; stroke:#000; stroke-width:2">
    <!-- Burger -->
    <path d="M100,123.8c4.1-0.4,7.2-2.2,8.1-5.5c0.9-3.3-0.7-4.8-4.9-4.4l-9.3,0.3C95.3,114.4,96,115.7,96,117
      c0,1.3-0.4,2.2-1.3,2.7c-0.9,0.6-2.3,0.5-4.2-0.2L85,113.9c3.6,0.7,4.2,0.4,4.9-2.8c0.7-3.2,0.4-7.7-2.8-8.5l1.7-1.1
      c1.8,5.9,1.8,11.9,0,17.7c0,0-0.1,0.1-0.3,0.1v0.1V123.8L100,123.8z"/>
    <!-- Top bun -->
    <path d="M95.7,101.8c-7.2-4-11.8-4.5-13.3-1.6s-1.6,10.1,5.7,14.1c7.3,4,11.8,4.5,13.3,1.6S102.9,105.9,95.7,101.8z"/>
    <!-- Bottom bun -->
    <path d="M95.3,104.5c-7.4-4.3-11.9-4.3-13.3-1.1c-1.4,3.2,2.8,9.1,10.2,13.4c7.4,4.3,11.9,4.3,13.3,1.1
      C109.6,113.4,105.7,107.6,95.3,104.5z"/>
    <!-- Toast -->
    <rect x="97.3" y="68.9" width="5" height="36" fill="#f00"/>
    <!-- Toast's mustard -->
    <path class="dot2" d="M100.6,105.5l12.4-8.7c1.5,0,2.6,0.2,3.2,0.8c0.7,0.6,0.9,1.3,0.9,2.4c0,1.1-0.3,2-1,3s-1.6,1.7-2.9,2.1
      c-1.1,0.3-2.4,0.4-4.1,0.5l-13,9.4h-8.8l9.5-7c1.3-0.9,2.3-1.5,3-1.9s1-0.6,1.5-0.7s0.8-0.2,1.1-0.2c0.4,0,0.9-0.2,1.3-0.5
      c0.4-0.3,0.6-0.6,0.6-0.8s-0.1-0.5-0.5-0.8c-0.4-0.3-0.9-0.5-1.4-0.7l-11.6-7.5l-9.9,7.6c-2,2.8-3.1,5.1-3.2,6.8
      c-0.1,1.8,0.2,3.2,0.9,4.3c0.6,1.1,1.6,1.7,2.9,2l12.2,2.4c1.5-2.3,3-4.4,4.5-6.3l8.6-7.8l-1.8-0.9l-10.5,9.2c-2,1.7-3.7,3.4-4.9,5
      s-2,3-2.3,4.4s-0.3,3.4-0.3,5.6s0.3,4.2,1,6s1.6,3.9,2.8,5s2.5,2.2,4.1,2.2s2.9-0.4,3.9-1.2c1-0.8,1.6-1.9,1.8-3.3s0.2-2.7,0.1-4.3
      c-0.1-1.6-0.4-3.1-1-4.5c-0.6-1.3-1.4-2.4-2.5-3.3l9.6-7.8l10.8-8.5l-11.2-7.3l-11.1,7.8c-1.1-1.5-1.9-2.8-2.4-4s-0.5-2.2-0.5-3.3
      s0.2-2.2,0.6-3.3c0.4-1.1,1-2.3,1.6-3.4L100.6,105.5z"/>
    <!-- Toast's ketchup -->
    <path class="dot2" d="M98.8,108.4c-1.4,0.6-2.8,0.9-4.2,0.9c-1.4,0-2.3-0.2-2.6-0.7c-0.3-0.5-0.4-1.4-0.4-2.6
      c-0.1-1-0.1-1.9-0.2-2.8c-0.1-0.9-0.3-1.7-0.5-2.5s-0.6-1.4-1.1-2c-0.5-0.6-1.2-1-2-1.2c-0.8-0.2-1.7-0.3-2.8-0.3
      c-1.1,0-1.7,0.1-2,0.4s-0.5,0.6-0.5,1.1c-0.1,0.5-0.1,1-0.1,1.5c0,0.5,0,0.9,0.1,1.4s0.2,0.8,0.3,1.2c0.2,0.4,0.5,0.7,0.8,0.9
      c0.4,0.3,0.9,0.4,1.5,0.4c0.6,0,1-0.1,1.2-0.2c0.2-0.1,0.3-0.3,0.3-0.7v-8.1h1.4v7.8c0,1.2,0,2.3,0.1,3.3c0.1,1.1,0.5,2,1.3,2.7
      s1.9,0.9,3.8,0.9c1.9,0,3.3-0.5,4.4-1.4C99,109.2,99,108.6,98.8,108.4z"/>
  </g>
  
  <!-- Add background -->
  <g transform="translate(0 0)" style="fill:#fff; stroke:#000; stroke-width:2">
    <circle cx="100" cy="100" r="100" fill="#fff" />
  </g>
</svg>