<svg viewBox="0 0 800 600" preserveAspectRatio="xMidYMid meet" xmlns="http://www.w3.org/2000/svg" id="pop-art-canvas">
        <!-- Definitions for gradients and reusable filters -->
        <defs>
            <filter id="half-tone" x="0%" y="0%" width="100%" height="100%">
                <!-- Create noise pattern -->
                <feTurbulence type="fractalNoise" baseFrequency="0.8" numOctaves="3" result="noise" />
                <!-- Create pattern dots -->
                <feColorMatrix type="matrix" values="1 0 0 0 0  0 1 0 0 0  0 0 1 0 0  0 0 0 25 -10" in="noise" result="dots" />
            </filter>
            
            <clipPath id="bite-clip">
                <path d="M 300,450 C 320,400 450,380 550,420 C 580,480 480,550 350,550 C 300,550 270,480 300,450 Z" />
            </clipPath>
        </defs>

        <!-- Background Base Color -->
        <rect width="800" height="600" fill="#FC4C4C" />

        <!-- Background Elements Group -->
        <g id="bg-pattern">
            <!-- Halftone Dots -->
            <circle cx="100" cy="100" r="40" fill="#000000" opacity="0.15" />
            <circle cx="100" cy="300" r="50" fill="#000000" opacity="0.15" />
            <circle cx="700" cy="500" r="80" fill="#000000" opacity="0.15" />
            <circle cx="700" cy="100" r="30" fill="#000000" opacity="0.15" />
            <circle cx="400" cy="50" r="150" fill="#FFE600" clip-path="circle(150px at 400px 50px)" />
        </g>

        <!-- ANDY WARHOL FIGURE -->
        <g id="andy" transform="translate(0, 50)">
            
            <!-- Turtleneck / Shoulders -->
            <path d="M 260,450 Q 400,420 540,450 L 540,600 L 260,600 Z" fill="#000" />

            <!-- Neck -->
            <path d="M 340,380 L 340,460 L 460,460 L 460,380 Z" fill="#DDCFC6" />
            <!-- Neck Shadow -->
            <path d="M 340,380 Q 380,460 460,380" fill="none" stroke="#BCAAA4" stroke-width="2" />

            <!-- Head Shape -->
            <path d="M 340,200 
                     C 300,200 300,380 360,410 
                     C 400,430 440,420 460,400 
                     C 500,350 500,200 460,200 
                     Z" fill="#DDCFC6" />

            <!-- Hair (Messy Silver) -->
            <path d="M 330,220 
                     C 320,180 340,140 380,130 
                     C 420,120 460,140 480,180 
                     L 490,220 
                     C 480,200 460,180 440,180
                     C 400,180 360,200 330,220 Z" fill="#EFEFEF" />
            <path d="M 330,220 C 340,250 330,280 320,300" fill="none" stroke="#EFEFEF" stroke-width="15" stroke-linecap="round"/>

            <!-- Facial Features -->
            
            <!-- Nose (Profile/Side) -->
            <path d="M 400,250 Q 395,320 430,320 Q 435,315 415,310" fill="none" stroke="#BCAAA4" stroke-width="1.5" />
            
            <!-- Ear -->
            <path d="M 320,320 C 310,300 310,280 320,270" fill="none" stroke="#BCAAA4" stroke-width="2" />

            <!-- Glasses (Iconic) -->
            <g transform="translate(0, 0)">
                <!-- Left Lens Background -->
                <path d="M 345,250 L 395,250 L 395,290 L 345,290 Z" fill="#333" opacity="0.3" />
                <!-- Right Lens Background -->
                <path d="M 405,250 L 455,250 L 455,290 L 405,290 Z" fill="#333" opacity="0.3" />
                
                <!-- Frames -->
                <rect x="340" y="245" width="60" height="45" rx="5" ry="5" fill="none" stroke="#000" stroke-width="4" />
                <rect x="405" y="245" width="60" height="45" rx="5" ry="5" fill="none" stroke="#000" stroke-width="4" />
                
                <!-- Bridge -->
                <line x1="400" y1="260" x2="405" y2="260" stroke="#000" stroke-width="4" />
                
                <!-- Temple (Arm) -->
                <line x1="340" y1="250" x2="320" y2="270" stroke="#000" stroke-width="3" />
                
                <!-- Glare on Glasses -->
                <line x1="350" y1="280" x2="370" y2="250" stroke="#FFF" stroke-width="3" opacity="0.8" />
                <line x1="410" y1="280" x2="430" y2="250" stroke="#FFF" stroke-width="3" opacity="0.8" />
            </g>

            <!-- Mouth (Masticating) -->
            <g transform="translate(350, 340)">
                <path d="M 0,0 Q 20,5 40,0" fill="none" stroke="#A1887F" stroke-width="3" />
                <path d="M 5,5 Q 20,10 35,5" fill="none" stroke="#A1887F" stroke-width="3" />
            </g>

            <!-- Hand Holding Burger -->
            <g id="hand" transform="translate(450, 480) rotate(-10)">
                <!-- Fingers Back -->
                <rect x="0" y="0" width="60" height="14" rx="5" fill="#DDCFC6" stroke="#000" stroke-width="2" />
                <rect x="5" y="18" width="60" height="14" rx="5" fill="#DDCFC6" stroke="#000" stroke-width="2" />
                <rect x="10" y="36" width="60" height="14" rx="5" fill="#DDCFC6" stroke="#000" stroke-width="2" />
                
                <!-- Thumb Front -->
                <path d="M -20,-10 Q 5,-15 30,0 L 30,20 L 0,20 Q -20,20 -20,-10 Z" fill="#DDCFC6" stroke="#000" stroke-width="2" />
            </g>
        </g>

        <!-- HAMBURGER -->
        <g id="burger" transform="translate(380, 420) rotate(15)">
            
            <!-- Bottom Bun -->
            <path d="M 0,50 L 120,50 C 120,80 100,90 60,90 C 20,90 0,80 0,50 Z" fill="#E6A65D" stroke="#000" stroke-width="3" />
            
            <!-- Meat Patty -->
            <path d="M -5,40 L 125,40 C 125,55 120,60 60,60 C 0,60 -5,55 -5,40 Z" fill="#5D4037" stroke="#000" stroke-width="3" />
            
            <!-- Lettuce -->
            <path d="M -5,35 L 125,35 L 120,45 L 110,35 L 100,45 L 90,35 L 80,45 L 70,35 L 60,45 L 50,35 L 40,45 L 30,35 L 20,45 L 10,35 L 0,45 Z" fill="#8BC34A" stroke="#000" stroke-width="2" />

            <!-- Cheese -->
            <path d="M -5,20 L 125,20 L 115,40 L 5,40 Z" fill="#FFC107" stroke="#000" stroke-width="3" />
            <!-- Drip -->
            <path d="M 100,40 L 100,55 L 110,55 L 110,40" fill="#FFC107" stroke="#000" stroke-width="3" style="z-index: 5" />

            <!-- Top Bun (With Bite Mark) -->
            <!-- Using mask to simulate bite mark -->
            <mask id="bite-mask">
                <rect x="-20" y="-20" width="200" height="200" fill="white" />
                <!-- The Bite Circles -->
                <circle cx="110" cy="10" r="35" fill="black" />
                <circle cx="95" cy="35" r="30" fill="black" />
            </mask>

            <path d="M -10,20 L 130,20 L 130,-10 C 130,-30 100,-40 60,-40 C 20,-40 -10,-30 -10,-10 Z" 
                  fill="#E6A65D" stroke="#000" stroke-width="3" mask="url(#bite-mask)" />
            
            <!-- Sesame Seeds -->
            <g fill="#F5F5F5" mask="url(#bite-mask)">
                <ellipse cx="20" cy="0" rx="3" ry="5" transform="rotate(20, 20, 0)" />
                <ellipse cx="40" cy="-20" rx="3" ry="5" transform="rotate(-10, 40, -20)" />
                <ellipse cx="60" cy="5" rx="3" ry="5" transform="rotate(45, 60, 5)" />
                <ellipse cx="80" cy="-25" rx="3" ry="5" />
            </g>

            <!-- Burger Shadow/Hand Cover -->
            <!-- Re-drawing fingers slightly overlapping front of bun for depth -->
        </g>

        <!-- Fore Text / Exhibition Feel -->
        <text x="50" y="550" font-family="Arial, Helvetica, sans-serif" font-weight="900" font-size="30" fill="#000" transform="rotate(-5, 50, 550)">WARHOL / SMOKE</text>
        <text x="500" y="100" font-family="Arial, Helvetica, sans-serif" font-weight="900" font-size="40" fill="#000" transform="rotate(5, 500, 100)" letter-spacing="5">#FOOD</text>

        <!-- Floor Shadow -->
        <ellipse cx="400" cy="580" rx="200" ry="20" fill="#000" opacity="0.2" />

        <!-- JAVASCRIPT POP ART EFFECT -->
        <script>
            document.addEventListener("DOMContentLoaded", () => {
                const svgNS = "http://www.w3.org/2000/svg";
                const bgGroup = document.getElementById('bg-pattern');
                const colors = ['#000000', '#FFE600', '#FFFFFF', '#FC4C4C'];

                // Create random background geometric blocks
                for (let i = 0; i < 15; i++) {
                    const rect = document.createElementNS(svgNS, 'rect');
                    
                    const w = Math.random() * 100 + 20;
                    const h = Math.random() * 50 + 10;
                    const x = Math.random() * 800;
                    const y = Math.random() * 600;
                    
                    rect.setAttribute('x', x);
                    rect.setAttribute('y', y);
                    rect.setAttribute('width', w);
                    rect.setAttribute('height', h);
                    rect.setAttribute('fill', colors[Math.floor(Math.random() * colors.length)]);
                    rect.setAttribute('opacity', '0.6');
                    
                    // Insert before other background elements so they layer nicely
                    if(bgGroup.firstChild) {
                        bgGroup.insertBefore(rect, bgGroup.firstChild);
                    } else {
                        bgGroup.appendChild(rect);
                    }
                }

                // Add Halftone pattern simulation manually with circles for better performance
                const dotCanvas = document.createElementNS(svgNS, 'g');
                for(let r = 0; r < 600; r += 40) {
                    for(let c = 0; c < 800; c += 40) {
                        // Only place dots in some areas randomly
                        if(Math.random() > 0.5) {
                            const circle = document.createElementNS(svgNS, 'circle');
                            circle.setAttribute('cx', c);
                            circle.setAttribute('cy', r);
                            circle.setAttribute('r', 10 + Math.random() * 15);
                            circle.setAttribute('fill', '#000');
                            circle.setAttribute('opacity', '0.15');
                            dotCanvas.appendChild(circle);
                        }
                    }
                }
                bgGroup.appendChild(dotCanvas);
            });
        </script>
    </svg>