<svg xmlns="http://www.w3.org/2000/svg" viewBox="0 0 600 600">
  <!-- Pop-art background -->
  <defs>
    <filter id="halftone">
      <feTurbulence type="fractalNoise" baseFrequency="0.04" numOctaves="2" result="noise"/>
      <feColorMatrix type="matrix" values="0 0 0 0 0  0 0 0 0 0  0 0 0 0 0  0 0 0 0.1 0" in="noise" result="spotNoise"/>
      <feBlend in="spotNoise" in2="SourceGraphic" mode="multiply"/>
    </filter>
  </defs>

  <!-- Background color blocks -->
  <rect x="0"   y="0"   width="300" height="300" fill="#fff0a0"/>
  <rect x="300" y="0"   width="300" height="300" fill="#ff80c0"/>
  <rect x="0"   y="300" width="300" height="300" fill="#66ddff"/>
  <rect x="300" y="300" width="300" height="300" fill="#ffcc22"/>

  <g filter="url(#halftone)">
    <!-- Andy's signature silver hair (front silhouette) -->
    <path d="M 140 120
             C 110 120, 90 100, 90 80
             C 90 60, 120 30, 180 20
             C 220 10, 380 10, 420 20
             C 480 30, 510 60, 510 80
             C 510 100, 490 120, 460 120
             L 140 120 Z"
          fill="#cfcfcf" stroke="#222" stroke-width="2"/>

    <!-- Face silhouette (typical Warhol screen-print profile) -->
    <path d="M 180 140
             C 150 140, 130 160, 130 190
             C 130 220, 150 260, 200 270
             C 230 278, 220 230, 220 170
             C 220 150, 200 140, 180 140 Z"
          fill="#ffd9b3" stroke="#222" stroke-width="2"/>

    <!-- Nose -->
    <path d="M 200 220
             C 195 230, 190 250, 190 260
             C 185 275, 190 270, 200 265
             C 205 262, 205 255, 205 245
             Z"
          fill="#e6b894" stroke="#222" stroke-width="1.5"/>

    <!-- Eyebrows -->
    <path d="M 170 240 Q 180 240 185 242" stroke="#222" stroke-width="2" fill="none"/>
    <path d="M 190 238 Q 198 235 205 240" stroke="#222" stroke-width="2" fill="none"/>

    <!-- Eyes -->
    <circle cx="185" cy="245" r="4" fill="#222"/>
    <circle cx="205" cy="245" r="4" fill="#222"/>

    <!-- Lips/mouth -->
    <path d="M 200 275
             C 195 280, 188 284, 195 290
             C 202 296, 210 294, 215 288
             C 208 290, 205 280, 200 275 Z"
          fill="#d96a78" stroke="#222" stroke-width="1.2"/>

    <!-- Thick-rimmed glasses silhouette -->
    <g fill="none" stroke="#222" stroke-width="2">
      <rect x="175" y="220" width="20" height="16" rx="3"/>
      <rect x="195" y="220" width="20" height="16" rx="3"/>
    </g>

    <!-- Sunglasses finish line towards ear -->
    <path d="M 215 220 L 220 215" stroke="#222" stroke-width="2"/>

    <!-- Neck -->
    <path d="M 210 255
             L 230 260
             L 235 300
             L 200 310
             L 195 270 Z"
          fill="#f3c698" stroke="#222" stroke-width="2"/>

    <!-- Body/shirt -->
    <path d="M 180 300
             L 250 290
             L 260 320
             L 170 320 Z"
          fill="#f5f5f5" stroke="#222" stroke-width="2"/>

    <!-- Tie -->
    <path d="M 210 285
             L 225 282
             L 225 365
             C 245 380, 200 380, 215 365 Z"
          fill="#ec008c" stroke="#222" stroke-width="2"/>

    <!-- Blazer/collar lines -->
    <g stroke="#222" stroke-width="2">
      <line x1="190" y1="295" x2="190" y2="320"/>
      <line x1="240" y1="290" x2="245" y2="320"/>
    </g>

    <!-- Hand holding hamburger -->
    <path d="M 250 310
             C 280 310, 295 315, 300 345
             C 305 375, 285 390, 260 385
             C 235 380, 230 350, 240 330
             Z"
          fill="#ecbba4" stroke="#222" stroke-width="2"/>

    <!-- Hamburger overall block -->
    <g transform="translate(275, 360) scale(0.85)">
      <!-- Bottom bun -->
      <rect x="0" y="50" width="90" height="20" rx="10" fill="#f4a460" stroke="#222" stroke-width="2"/>

      <!-- Patty -->
      <rect x="0" y="28" width="90" height="22" rx="6" fill="#8b4513" stroke="#222" stroke-width="2"/>

      <!-- Cheese -->
      <path d="M 2 30
               C 5 20, 8 21, 12 24
               C 18 26, 17 32, 25 32
               C 33 32, 35 23, 40 27
               C 45 31, 47 37, 55 37
               C 62 37, 63 28, 68 30
               C 73 32, 77 37, 85 34
               C 88 32, 88 28, 88 28 Z"
            fill="#ffd700" stroke="#222" stroke-width="1"/>

      <!-- Tomato -->
      <rect x="2" y="18" width="86" height="10" rx="3" fill="#ff6347" stroke="#222" stroke-width="1.2"/>

      <!-- Lettuce -->
      <path d="M 0 16
               Q 22 26, 45 14
               Q 68 26, 90 16
               L 90 18
               Q 68 28, 45 16
               Q 22 28, 0 18 Z"
            fill="#90ee90" stroke="#222" stroke-width="1"/>

      <!-- Top bun -->
      <path d="M 0 14
               Q 45 -10 90 14
               L 90 20
               Q 45 26 0 20 Z"
            fill="#f4a460" stroke="#222" stroke-width="2"/>

      <!-- Sesame seeds -->
      <g fill="#f0e68c" stroke="#222" stroke-width="1">
        <ellipse cx="25" cy="14" rx="5" ry="3" transform="rotate(-10 25 14)"/>
        <ellipse cx="50" cy="10" rx="5" ry="3" transform="rotate(5 50 10)"/>
        <ellipse cx="75" cy="14" rx="5" ry="3" transform="rotate(15 75 14)"/>
      </g>
    </g>
  </g>

  <!-- Signature-style text -->
  <text x="460" y="560" font-family="Arial, Helvetica, sans-serif"
        font-size="42" font-weight="bold" fill="#222">Warhol</text>
</svg>