<svg xmlns="http://www.w3.org/2000/svg" viewBox="0 0 400 400">
  <rect width="400" height="400" fill="#f7f4f0" />
  <defs>
    <linearGradient id="hairGradient" x1="0" y1="0" x2="1" y2="1">
      <stop offset="0%" stop-color="#fce700" />
      <stop offset="100%" stop-color="#f0544f" />
    </linearGradient>
    <linearGradient id="shirtGradient" x1="0" y1="0" x2="1" y2="1">
      <stop offset="0%" stop-color="#3f8ed0" />
      <stop offset="100%" stop-color="#2d64b3" />
    </linearGradient>
  </defs>
  <g transform="translate(50, 60)">
    <rect x="60" y="200" width="220" height="140" rx="20" fill="#d4d4d2" />
    <rect x="130" y="150" width="140" height="120" rx="15" fill="url(#shirtGradient)" />
    <circle cx="200" cy="90" r="70" fill="#f9d2ad" />
    <path d="M320 190c-10-20-30-35-60-35-30 0-50 15-60 35" stroke="#8c6d4a" stroke-width="8" stroke-linecap="round" fill="none" />
    <path d="M140 110c10 5 40 25 60 5" stroke="#8c6d4a" stroke-width="6" stroke-linecap="round" />
    <path d="M150 60c10-25 40-35 60-15s25 45 15 70" stroke="#2b2b2b" stroke-width="4" fill="none" />
    <path d="M230 60c20-18 50-10 60 15" stroke="#2b2b2b" stroke-width="4" fill="none" />
    <path d="M145 80c0-10 25-40 68-40s68 30 68 40" stroke="url(#hairGradient)" stroke-width="25" stroke-linecap="round" />
    <circle cx="175" cy="90" r="10" fill="#2b2b2b" />
    <circle cx="225" cy="90" r="10" fill="#2b2b2b" />
    <path d="M175 120c10 18 40 18 50 0" stroke="#8c6d4a" stroke-width="6" stroke-linecap="round" />
    <path d="M120 200c0 50 40 90 90 90s90-40 90-90" stroke="#d4d3d1" stroke-width="10" fill="none" />
    <path d="M220 210c8 25 2 36-8 45" stroke="#d4d3d0" stroke-width="10" stroke-linecap="round" />
    <path d="M180 210c-8 25-2 36 8 45" stroke="#d4d3d0" stroke-width="10" stroke-linecap="round" />
    <path d="M110 220c80 0 140-40 140-40" stroke="#7a332a" stroke-width="14" stroke-linecap="round" />
    <path d="M150 260h100" stroke="#7a332a" stroke-width="10" stroke-linecap="round" />
    <path d="M210 210h80" stroke="#7a332a" stroke-width="10" stroke-linecap="round" />
    <path d="M235 210c0 12-10 20-22 20s-22-8-22-20" fill="#ffb347" stroke="#7a332a" stroke-width="4" />
    <path d="M241 210c0 6-6 12-12 12s-12-6-12-12" stroke="#7a332a" stroke-width="4" fill="none" />
  </g>
  <text x="200" y="380" text-anchor="middle" font-family="Helvetica, Arial, sans-serif" font-size="18" fill="#333">
    Playful homage to Andy Warhol enjoying a burger
  </text>
</svg>