<svg width="600" height="600" viewBox="0 0 600 600" xmlns="http://www.w3.org/2000/svg" xmlns:xlink="http://www.w3.org/1999/xlink">
  <defs>
    <!-- Grain Filter for Silkscreen Effect -->
    <filter id="grain">
      <feTurbulence type="fractalNoise" baseFrequency="0.8" numOctaves="3" stitchTiles="stitch"/>
      <feColorMatrix type="matrix" values="1 0 0 0 0  0 1 0 0 0  0 0 1 0 0  0 0 0 0.4 0"/>
      <feComposite operator="in" in2="SourceGraphic" result="monoNoise"/>
      <feBlend mode="multiply" in="monoNoise" in2="SourceGraphic"/>
    </filter>

    <!-- Silver Hair Gradient -->
    <linearGradient id="silverHair" x1="0%" y1="0%" x2="100%" y2="0%">
      <stop offset="0%" style="stop-color:#C0C0C0;stop-opacity:1" />
      <stop offset="50%" style="stop-color:#404040;stop-opacity:1" />
      <stop offset="100%" style="stop-color:#E0E0E0;stop-opacity:1" />
    </linearGradient>

    <!-- Pop Art Shadow Box ClipPath -->
    <clipPath id="shadowBox">
      <rect x="50" y="50" width="500" height="500" rx="15" ry="15" fill="#ffffff"/>
    </clipPath>
  </defs>

  <!-- Background Color -->
  <rect width="100%" height="100%" fill="#2E8B57" /> <!-- Sea Green Warhol Style -->

  <!-- Shadow Box Frame -->
  <g filter="url(#grain)">
    <rect x="50" y="50" width="500" height="500" rx="15" ry="15" fill="#F0F8FF" stroke="#000" stroke-width="5"/>
  </g>

  <!-- Andy Warhol Face Group -->
  <g transform="translate(300, 320)">
    
    <!-- Neck -->
    <path d="M-60 150 L-50 260 L50 260 L60 150 Z" fill="#E6E6FA" />

    <!-- Face Shape (Peachy Skin) -->
    <path d="M-110 20 Q-110 -100 0 -100 Q110 -100 110 20 Q110 120 60 160 L-60 160 Q-110 120 -110 20 Z" fill="#FFE4E1" stroke="#000" stroke-width="4"/>

    <!-- The Silver Wig -->
    <path d="M-120 40 Q-130 -140 0 -140 Q130 -140 120 40 Q110 0 0 -10 Q-110 0 -120 40 Z" fill="url(#silverHair)" stroke="#000" stroke-width="2"/>
    
    <!-- Hair Details (Abstract strands) -->
    <path d="M-90 60 Q-100 10 -50 -20 M90 60 Q100 10 50 -20 M-40 50 Q-60 80 -40 120 M40 50 Q60 80 40 120" fill="none" stroke="#000" stroke-width="3"/>

    <!-- Glasses -->
    <g stroke="#000" stroke-width="8" fill="none">
      <rect x="-85" y="-10" width="110" height="80" rx="5" ry="5" fill="#E6E6FA" stroke="#000" stroke-width="6"/>
      <line x1="25" y1="-10" x2="25" y2="70" /> <!-- Bridge/Temples -->
      <rect x="-70" y="5" width="30" height="50" fill="#000" opacity="0.1"/> <!-- Lens Reflection -->
    </g>

    <!-- Chin Cleft -->
    <path d="M-10 150 L10 150" stroke="#D2691E" stroke-width="4"/>

    <!-- Mustache -->
    <path d="M-40 140 Q0 150 40 140 Q20 120 0 125 Q-20 120 -40 140" fill="#000" stroke="none"/>

    <!-- Mouth (Open) -->
    <path d="M-40 165 Q0 190 40 165 Z" fill="#D2691E" stroke="#000" stroke-width="3"/>

    <!-- Hamburger (Slices sticking out) -->
    <g transform="translate(0, 160) rotate(-10)">
      <!-- Bottom Bun -->
      <path d="M-60 0 Q-40 -40 0 -40 Q40 -40 60 0 Z" fill="#FFD700" stroke="#000" stroke-width="3"/>
      
      <!-- Lettuce -->
      <path d="M-45 0 Q-30 -10 0 -10 Q30 -10 45 0 Q30 -20 0 -20 Q-30 -20 -45 0" fill="#32CD32" stroke="#000" stroke-width="3"/>
      
      <!-- Patty (Cheese style) -->
      <rect x="-30" y="-5" width="60" height="10" fill="#FF4500" stroke="#000" stroke-width="3"/>
      
      <!-- Top Bun with Seeds -->
      <path d="M-55 -20 Q-35 -60 0 -60 Q35 -60 55 -20 Q35 -50 0 -50 Q-35 -50 -55 -20" fill="#F5F5DC" stroke="#000" stroke-width="3"/>
      <!-- Sesame Seeds -->
      <circle cx="-30" cy="-40" r="3" fill="#FFF8DC" stroke="#000" stroke-width="1"/>
      <circle cx="30" cy="-40" r="3" fill="#FFF8DC" stroke="#000" stroke-width="1"/>
      <circle cx="0" cy="-50" r="3" fill="#FFF8DC" stroke="#000" stroke-width="1"/>
      <circle cx="-15" cy="-35" r="3" fill="#FFF8DC" stroke="#000" stroke-width="1"/>
      <circle cx="15" cy="-35" r="3" fill="#FFF8DC" stroke="#000" stroke-width="1"/>
    </g>

  </g>
  
  <!-- "Brillo Box" Style Label -->
  <g transform="translate(310, 480)" opacity="0.9">
      <rect x="-60" y="-20" width="120" height="30" fill="#000" stroke="#FFF" stroke-width="2"/>
      <text x="0" y="0" font-family="Arial Black, sans-serif" font-size="18" fill="#FFF" text-anchor="middle">HAMBURGER</text>
  </g>

</svg>